<svg width="187" height="48" viewBox="0 0 187 48" fill="none" xmlns="http://www.w3.org/2000/svg">
<path fill-rule="evenodd" clip-rule="evenodd" d="M26.6907 5.09266C23.5556 2.26516 19.5921 0.849724 14.8001 0.846362H13.1897V8.0227H14.8001C15.8697 7.97988 16.9371 8.14625 17.9347 8.51126C18.9323 8.87626 19.8383 9.43196 20.5953 10.1431C21.3523 10.8543 21.9438 11.7054 22.3323 12.6426C22.7209 13.5798 22.898 14.5825 22.8524 15.5874C22.8799 16.5977 22.6815 17.6022 22.27 18.536C21.8585 19.4698 21.2431 20.3122 20.4636 21.0087C19.7222 21.7083 18.839 22.2611 17.8662 22.6344C16.8934 23.0078 15.8509 23.1941 14.8001 23.1823H13.1897V30.3435H14.8001C19.5706 30.3435 23.5288 28.923 26.6746 26.082C28.2021 24.7434 29.4123 23.1174 30.2262 21.3101C31.0402 19.5027 31.4396 17.5545 31.3986 15.5924C31.4422 13.6299 31.0455 11.6807 30.2344 9.8717C29.4233 8.06269 28.2158 6.43437 26.6907 5.09266ZM170.048 9.07671L172.963 17.7004H167.139L170.048 9.07671ZM165.34 0.846362L153.45 30.3435H162.646L164.884 24.0295H175.196L177.456 30.3435H186.652L174.772 0.846362H165.34ZM130.818 12.4455L121.155 0.846362H113.575V30.3435H122.089V12.859L130.828 23.1823L139.573 12.859V30.3435H148.087V0.846362H140.47L130.818 12.4455ZM95.6344 18.9662H98.3185V22.1636C98.1734 22.3259 98.0135 22.4761 97.8407 22.6124C97.2689 23.0456 96.6124 23.3694 95.9081 23.5655C94.961 23.8831 93.9613 24.0402 92.9556 24.0295C91.7685 24.0579 90.5875 23.8592 89.4846 23.4456C88.3817 23.0319 87.3798 22.4119 86.5398 21.6233C85.6998 20.8347 85.0393 19.8938 84.5983 18.8579C84.1574 17.822 83.9452 16.7127 83.9747 15.5974C83.945 14.4824 84.1574 13.3733 84.5989 12.3379C85.0404 11.3025 85.7017 10.3623 86.5425 9.57479C87.3833 8.78726 88.386 8.16883 89.4895 7.75719C90.593 7.34556 91.7742 7.14934 92.961 7.1805C93.9148 7.18249 94.863 7.31848 95.7739 7.58395C96.5556 7.79579 97.3059 8.09906 98.0071 8.48666C98.5893 8.82698 99.1422 9.20975 99.6605 9.63145C100.027 9.91243 100.371 10.2175 100.691 10.5442L101.04 10.9679L106.204 5.92477L105.7 5.32968C105.234 4.78132 104.703 4.28547 104.116 3.85205C103.298 3.21957 102.433 2.64156 101.529 2.12227C100.354 1.47006 99.0893 0.971249 97.7709 0.639595C94.7844 -0.133456 91.6368 -0.173563 88.6291 0.523112C85.6214 1.21979 82.8543 2.62993 80.5927 4.6186C78.9657 6.00825 77.6679 7.70384 76.7838 9.59528C75.8997 11.4867 75.4489 13.5317 75.4607 15.5974C75.4412 17.6627 75.8842 19.7088 76.7609 21.6028C77.6376 23.4968 78.9285 25.1964 80.5497 26.5914C82.1894 28.0926 84.1308 29.272 86.2608 30.0608C88.3908 30.8496 90.6667 31.232 92.9556 31.1857C94.6052 31.1901 96.2474 30.9797 97.8353 30.5603C99.1783 30.2262 100.478 29.7544 101.711 29.1533C102.71 28.6356 103.656 28.0311 104.535 27.3479C105.415 26.6721 105.99 26.198 106.269 25.9308C106.485 25.7236 106.685 25.5011 106.865 25.2651V13.908H95.6344V18.9662ZM47.2347 21.6189C48.8935 23.1634 51.1344 24.0299 53.4699 24.0299C55.8053 24.0299 58.0463 23.1634 59.7051 21.6189C60.5322 20.825 61.1805 19.8826 61.6112 18.848C62.042 17.8134 62.2463 16.7079 62.212 15.5974C62.2472 14.4869 62.0433 13.3811 61.6125 12.3464C61.1818 11.3117 60.533 10.3694 59.7051 9.57597C58.0409 8.0412 55.802 7.18134 53.4699 7.18134C51.1378 7.18134 48.8989 8.0412 47.2347 9.57597C46.4051 10.3684 45.7548 11.3105 45.323 12.3453C44.8913 13.3802 44.687 14.4864 44.7224 15.5974C44.6879 16.7083 44.8926 17.8143 45.3243 18.8491C45.7561 19.8838 46.4059 20.8259 47.2347 21.6189ZM65.857 26.5864C64.2199 28.0912 62.2791 29.2734 60.1486 30.0632C58.0181 30.8531 55.7409 31.2347 53.4511 31.1857C51.1634 31.2314 48.8888 30.8482 46.7606 30.0585C44.6323 29.2688 42.693 28.0884 41.0559 26.5864C39.4343 25.1928 38.1431 23.4941 37.2663 21.6008C36.3895 19.7075 35.9468 17.6621 35.9669 15.5974C35.9471 13.5285 36.3915 11.4789 37.2712 9.58201C38.1508 7.68516 39.4458 5.98367 41.072 4.58834C42.709 3.09156 44.6464 1.91547 46.7716 1.12848C48.8968 0.341496 51.1673 -0.0406872 53.4511 0.00416356C55.7395 -0.0446172 58.0153 0.335665 60.1454 1.12278C62.2755 1.90989 64.2172 3.08804 65.857 4.58834C67.4807 5.98283 68.7735 7.68299 69.6513 9.57808C70.529 11.4732 70.972 13.5207 70.9514 15.5874C70.9734 17.6542 70.531 19.7021 69.6532 21.5974C68.7753 23.4927 67.4818 25.1927 65.857 26.5864ZM0 0.846362V8.02774H2.74315V30.3435H11.2303V0.846362H0Z" fill="#333333"/>
<path d="M2.1999 41.431C1.48704 41.5486 0.942816 41.7911 0.567222 42.1586C0.183964 42.526 0 43.0111 0 43.6137C0 44.1649 0.252951 44.65 0.766517 45.0762C1.28008 45.5025 1.91629 45.7156 2.66748 45.7156C2.96642 45.7156 3.2577 45.6789 3.54131 45.598C3.82492 45.5245 4.05487 45.4364 4.23117 45.3335C4.39981 45.2306 4.56078 45.1203 4.71408 44.988C4.86738 44.8558 4.95936 44.7676 5.00536 44.7161C5.05135 44.6647 5.08201 44.6206 5.105 44.5912V45.5686H6.20112V40.9753C6.20112 40.189 5.91751 39.5275 5.35029 38.991C4.78307 38.4619 4.07787 38.1899 3.21937 38.1899C2.8821 38.1899 2.54484 38.2414 2.2229 38.3369C1.90096 38.4325 1.64035 38.5427 1.44105 38.6603C1.24176 38.7852 1.05013 38.9249 0.866164 39.0792C0.6822 39.2335 0.567222 39.3438 0.513566 39.4026C0.45991 39.4614 0.421584 39.5128 0.390924 39.5496L1.09612 40.2257L1.33374 39.9685C1.48704 39.7921 1.73999 39.6157 2.09259 39.4393C2.44519 39.2629 2.82078 39.1747 3.21937 39.1747C3.77126 39.1747 4.22351 39.3438 4.57611 39.6745C4.9287 40.0126 5.105 40.4462 5.105 40.9753L2.1999 41.431ZM2.66748 44.7382C2.17691 44.7382 1.78598 44.6353 1.51004 44.4221C1.23409 44.209 1.09612 43.9371 1.09612 43.6137C1.09612 42.9376 1.57136 42.5113 2.51418 42.3349L5.105 41.8793V42.3349C5.105 43.0478 4.87505 43.6284 4.41514 44.0694C3.95523 44.5177 3.37267 44.7382 2.66748 44.7382Z" fill="#333333"/>
<path d="M14.0423 38.3443H9.0216V45.5686H10.1177V39.3217H14.0423V38.3443Z" fill="#333333"/>
<path d="M22.443 42.3496L22.5197 41.8058C22.5197 40.7622 22.1747 39.9023 21.4849 39.2188C20.795 38.5354 19.9365 38.1899 18.9094 38.1899C17.9129 38.1899 17.0544 38.5574 16.3185 39.2923C15.5827 40.0273 15.2224 40.9092 15.2224 41.9528C15.2224 42.9964 15.5903 43.8856 16.3339 44.6206C17.0697 45.3555 17.9589 45.7156 18.986 45.7156C19.3616 45.7156 19.7295 45.6642 20.0898 45.5539C20.4501 45.4437 20.7413 45.3261 20.9713 45.1938C21.2012 45.0615 21.4082 44.9146 21.6075 44.7455C21.8068 44.5765 21.9294 44.4589 21.9908 44.3854C22.0521 44.3119 22.0981 44.2605 22.1287 44.2164L21.4235 43.5402L21.1553 43.8342C20.9866 44.04 20.6953 44.2384 20.2968 44.4368C19.8905 44.6426 19.4536 44.7382 18.986 44.7382C18.2808 44.7382 17.6753 44.503 17.154 44.0253C16.6328 43.5549 16.3569 42.989 16.3185 42.3349L22.443 42.3496ZM18.9094 39.1747C19.5686 39.1747 20.1281 39.3879 20.5957 39.8141C21.0633 40.2404 21.3392 40.7842 21.4235 41.431H16.3185C16.4028 40.821 16.6941 40.2918 17.1847 39.8435C17.6753 39.4026 18.2502 39.1747 18.9094 39.1747Z" fill="#333333"/>
<path d="M30.2075 45.5686H31.3113V38.3443H30.2075V41.431H25.892V38.3443H24.7959V45.5686H25.892V42.4084H30.2075V45.5686Z" fill="#333333"/>
<path d="M33.1966 39.3217H35.8641V45.5686H36.9602V39.3217H39.6277V38.3443H33.1966V39.3217Z" fill="#333333"/>
<path d="M40.9688 41.9528C40.9688 42.9964 41.3367 43.8856 42.0802 44.6206C42.8161 45.3555 43.7053 45.7156 44.7324 45.7156C45.1003 45.7156 45.4606 45.6642 45.8132 45.5539C46.1658 45.4437 46.4571 45.3261 46.6793 45.1938C46.9093 45.0615 47.1239 44.9146 47.3232 44.7455C47.5302 44.5765 47.6681 44.4589 47.7295 44.3854C47.7908 44.3119 47.8368 44.2605 47.8674 44.2164L47.0856 43.5402L46.8326 43.8342C46.6563 44.04 46.3727 44.2384 45.9818 44.4368C45.5832 44.6426 45.1693 44.7382 44.7324 44.7382C44.0119 44.7382 43.3833 44.4736 42.8544 43.9371C42.3255 43.4006 42.0649 42.7392 42.0649 41.9601C42.0649 41.1811 42.3255 40.5197 42.8544 39.9832C43.3833 39.4467 44.0119 39.1747 44.7324 39.1747C45.016 39.1747 45.2919 39.2188 45.5526 39.2997C45.8132 39.3879 46.0201 39.4834 46.1888 39.5863C46.3497 39.6892 46.503 39.8141 46.641 39.9538C46.779 40.1008 46.871 40.1963 46.9093 40.2477C46.9553 40.3065 46.986 40.3433 47.0013 40.3727L47.7908 39.6231L47.4612 39.2776C47.2466 39.0425 46.8786 38.7999 46.3727 38.5574C45.8668 38.3149 45.3149 38.1899 44.7247 38.1899C43.7053 38.1899 42.8238 38.5574 42.0802 39.2923C41.3367 40.0273 40.9688 40.9092 40.9688 41.9528Z" fill="#333333"/>
<path d="M48.9709 39.3217H51.6384V45.5686H52.7345V39.3217H55.402V38.3443H48.9709V39.3217Z" fill="#333333"/>
<path d="M57.295 38.3443V45.5686H60.9053C61.6718 45.5686 62.2697 45.3849 62.6989 45.0027C63.1205 44.6279 63.3351 44.1135 63.3351 43.4594C63.3351 43.1948 63.2892 42.9523 63.1972 42.7318C63.1052 42.5187 63.0055 42.357 62.8982 42.2394C62.7909 42.1218 62.6606 42.0263 62.515 41.9381C62.3693 41.8499 62.2697 41.7984 62.2084 41.7764C62.147 41.7617 62.1087 41.747 62.0781 41.7323L62.3157 41.5927C62.469 41.4971 62.6299 41.3207 62.7833 41.0709C62.9366 40.821 63.0209 40.5344 63.0209 40.2257C63.0209 39.6818 62.8139 39.2335 62.4 38.8808C61.9861 38.528 61.4342 38.3443 60.7443 38.3443H57.295ZM60.9053 42.1806C61.3345 42.1806 61.6641 42.2909 61.8941 42.4966C62.124 42.7098 62.239 43.0037 62.239 43.3859C62.239 43.7681 62.124 44.0694 61.8941 44.2752C61.6641 44.4883 61.3345 44.5912 60.9053 44.5912H58.3911V42.1806H60.9053ZM61.9248 40.2992C61.9248 40.9533 61.5262 41.2766 60.7443 41.2766H58.3911V39.3217H60.7443C61.5262 39.3217 61.9248 39.6525 61.9248 40.2992Z" fill="#333333"/>
<path d="M67.4127 41.431C66.6998 41.5486 66.1556 41.7911 65.78 42.1586C65.3968 42.526 65.2128 43.0111 65.2128 43.6137C65.2128 44.1649 65.4658 44.65 65.9793 45.0762C66.4929 45.5025 67.1291 45.7156 67.8803 45.7156C68.1792 45.7156 68.4705 45.6789 68.7541 45.598C69.0377 45.5245 69.2677 45.4364 69.444 45.3335C69.6126 45.2306 69.7736 45.1203 69.9269 44.988C70.0802 44.8558 70.1722 44.7676 70.2182 44.7161C70.2641 44.6647 70.2948 44.6206 70.3178 44.5912V45.5686H71.4139V40.9753C71.4139 40.189 71.1303 39.5275 70.5631 38.991C69.9959 38.4619 69.2907 38.1899 68.4322 38.1899C68.0949 38.1899 67.7576 38.2414 67.4357 38.3369C67.1138 38.4325 66.8531 38.5427 66.6539 38.6603C66.4546 38.7852 66.2629 38.9249 66.079 39.0792C65.895 39.2335 65.78 39.3438 65.7264 39.4026C65.6727 39.4614 65.6344 39.5128 65.6037 39.5496L66.3089 40.2257L66.5465 39.9685C66.6998 39.7921 66.9528 39.6157 67.3054 39.4393C67.658 39.2629 68.0336 39.1747 68.4322 39.1747C68.9841 39.1747 69.4363 39.3438 69.7889 39.6745C70.1415 40.0126 70.3178 40.4462 70.3178 40.9753L67.4127 41.431ZM67.8803 44.7382C67.3897 44.7382 66.9988 44.6353 66.7228 44.4221C66.4469 44.209 66.3089 43.9371 66.3089 43.6137C66.3089 42.9376 66.7842 42.5113 67.727 42.3349L70.3178 41.8793V42.3349C70.3178 43.0478 70.0878 43.6284 69.6279 44.0694C69.168 44.5177 68.5855 44.7382 67.8803 44.7382Z" fill="#333333"/>
<path d="M82.9494 45.5686H84.0532V38.3443H82.9494V41.431H78.6339V38.3443H77.5378V45.5686H78.6339V42.4084H82.9494V45.5686Z" fill="#333333"/>
<path d="M93.55 42.3496L93.6267 41.8058C93.6267 40.7622 93.2817 39.9023 92.5919 39.2188C91.902 38.5354 91.0435 38.1899 90.0164 38.1899C89.0199 38.1899 88.1614 38.5574 87.4255 39.2923C86.6897 40.0273 86.3294 40.9092 86.3294 41.9528C86.3294 42.9964 86.6973 43.8856 87.4409 44.6206C88.1767 45.3555 89.0659 45.7156 90.093 45.7156C90.4686 45.7156 90.8365 45.6642 91.1968 45.5539C91.5571 45.4437 91.8483 45.3261 92.0783 45.1938C92.3083 45.0615 92.5152 44.9146 92.7145 44.7455C92.9138 44.5765 93.0364 44.4589 93.0978 44.3854C93.1591 44.3119 93.2051 44.2605 93.2357 44.2164L92.5305 43.5402L92.2623 43.8342C92.0936 44.04 91.8024 44.2384 91.4038 44.4368C90.9975 44.6426 90.5606 44.7382 90.093 44.7382C89.3878 44.7382 88.7823 44.503 88.261 44.0253C87.7398 43.5549 87.4639 42.989 87.4255 42.3349L93.55 42.3496ZM90.0164 39.1747C90.6756 39.1747 91.2351 39.3879 91.7027 39.8141C92.1703 40.2404 92.4462 40.7842 92.5305 41.431H87.4255C87.5099 40.821 87.8011 40.2918 88.2917 39.8435C88.7823 39.4026 89.3572 39.1747 90.0164 39.1747Z" fill="#333333"/>
<path d="M102.886 44.5912H101.705V38.3443H96.5315V40.4535C96.5315 40.9827 96.4778 41.4971 96.3858 41.9822C96.2938 42.4672 96.1865 42.8567 96.0639 43.1507C95.9412 43.4447 95.8109 43.7093 95.6576 43.9591C95.5043 44.209 95.3893 44.3707 95.328 44.4442C95.2667 44.5177 95.2207 44.5618 95.19 44.5912H94.6458V47.3766H95.7419V45.5686H101.79V47.3766H102.886V44.5912ZM97.6276 39.3217H100.609V44.5912H96.3705L96.6848 44.1723C96.8917 43.893 97.0987 43.4079 97.3056 42.7171C97.5203 42.0336 97.6199 41.2766 97.6199 40.4535L97.6276 39.3217Z" fill="#333333"/>
<path d="M104.925 38.3443V45.5686H108.535C109.301 45.5686 109.899 45.3849 110.328 45.0027C110.75 44.6279 110.965 44.1135 110.965 43.4594C110.965 43.1948 110.919 42.9523 110.827 42.7318C110.735 42.5187 110.635 42.357 110.528 42.2394C110.42 42.1218 110.29 42.0263 110.144 41.9381C109.999 41.8499 109.899 41.7984 109.838 41.7764C109.777 41.7617 109.738 41.747 109.708 41.7323L109.945 41.5927C110.098 41.4971 110.259 41.3207 110.413 41.0709C110.566 40.821 110.65 40.5344 110.65 40.2257C110.65 39.6818 110.443 39.2335 110.03 38.8808C109.616 38.528 109.064 38.3443 108.374 38.3443H104.925ZM108.535 42.1806C108.964 42.1806 109.294 42.2909 109.524 42.4966C109.754 42.7098 109.869 43.0037 109.869 43.3859C109.869 43.7681 109.754 44.0694 109.524 44.2752C109.294 44.4883 108.964 44.5912 108.535 44.5912H106.021V42.1806H108.535ZM109.554 40.2992C109.554 40.9533 109.156 41.2766 108.374 41.2766H106.021V39.3217H108.374C109.156 39.3217 109.554 39.6525 109.554 40.2992Z" fill="#333333"/>
<path d="M119.043 38.3443L114.49 43.7607V38.3443H113.394V45.5686H114.329L118.882 40.1522V45.5686H119.986V38.3443H119.043Z" fill="#333333"/>
<path d="M126.739 43.1581V45.5686H127.835V43.1581L128.931 42.0336L131.599 45.5686H132.856L129.636 41.2766L132.541 38.3443H131.208L127.835 41.8058V38.3443H126.739V41.8058L123.359 38.3443H122.025L124.93 41.2766L121.711 45.5686H122.968L125.635 42.0336L126.739 43.1581Z" fill="#333333"/>
<path d="M140.245 38.3443L135.692 43.7607V38.3443H134.595V45.5686H135.531L140.084 40.1522V45.5686H141.188V38.3443H140.245Z" fill="#333333"/>
<path d="M150.608 40.2257V45.5686H151.704V38.3443H150.838L147.856 41.9528L144.874 38.3443H144.016V45.5686H145.112V40.2257L147.856 43.5402L150.608 40.2257Z" fill="#333333"/>
<path d="M160.58 41.9601C160.58 42.7392 160.304 43.4006 159.767 43.9371C159.231 44.4736 158.579 44.7382 157.828 44.7382C157.077 44.7382 156.425 44.4736 155.889 43.9297C155.352 43.3859 155.084 42.7318 155.084 41.9528C155.084 41.1738 155.352 40.5197 155.889 39.9832C156.425 39.4467 157.077 39.1747 157.828 39.1747C158.579 39.1747 159.231 39.4467 159.767 39.9832C160.304 40.5197 160.58 41.1811 160.58 41.9601ZM153.988 41.9601C153.988 43.0184 154.356 43.9077 155.107 44.6353C155.858 45.3555 156.763 45.723 157.836 45.723C158.901 45.723 159.806 45.3555 160.549 44.6353C161.3 43.9077 161.668 43.0184 161.668 41.9601C161.668 40.9018 161.3 40.0126 160.549 39.285C159.806 38.5574 158.901 38.1899 157.836 38.1899C156.763 38.1899 155.858 38.5574 155.107 39.285C154.356 40.0126 153.988 40.9018 153.988 41.9601Z" fill="#333333"/>
<path d="M163.408 41.9528C163.408 42.9964 163.776 43.8856 164.519 44.6206C165.255 45.3555 166.144 45.7156 167.171 45.7156C167.539 45.7156 167.9 45.6642 168.252 45.5539C168.605 45.4437 168.896 45.3261 169.118 45.1938C169.348 45.0615 169.563 44.9146 169.762 44.7455C169.969 44.5765 170.107 44.4589 170.169 44.3854C170.23 44.3119 170.276 44.2605 170.307 44.2164L169.525 43.5402L169.272 43.8342C169.095 44.04 168.812 44.2384 168.421 44.4368C168.022 44.6426 167.608 44.7382 167.171 44.7382C166.451 44.7382 165.822 44.4736 165.294 43.9371C164.765 43.4006 164.504 42.7392 164.504 41.9601C164.504 41.1811 164.765 40.5197 165.294 39.9832C165.822 39.4467 166.451 39.1747 167.171 39.1747C167.455 39.1747 167.731 39.2188 167.992 39.2997C168.252 39.3879 168.459 39.4834 168.628 39.5863C168.789 39.6892 168.942 39.8141 169.08 39.9538C169.218 40.1008 169.31 40.1963 169.348 40.2477C169.394 40.3065 169.425 40.3433 169.44 40.3727L170.23 39.6231L169.9 39.2776C169.686 39.0425 169.318 38.7999 168.812 38.5574C168.306 38.3149 167.754 38.1899 167.164 38.1899C166.144 38.1899 165.263 38.5574 164.519 39.2923C163.776 40.0273 163.408 40.9092 163.408 41.9528Z" fill="#333333"/>
<path d="M171.41 39.3217H174.078V45.5686H175.174V39.3217H177.841V38.3443H171.41V39.3217Z" fill="#333333"/>
<path d="M185.383 38.3443L180.83 43.7607V38.3443H179.734V45.5686H180.669L185.222 40.1522V45.5686H186.326V38.3443H185.383Z" fill="#333333"/>
</svg>
